<mxfile host="app.diagrams.net" agent="Mozilla/5.0 (Windows NT 10.0; Win64; x64) AppleWebKit/537.36 (KHTML, like Gecko) Chrome/130.0.0.0 Safari/537.36" version="24.8.6">
  <diagram name="페이지-1" id="SdGPpmju1qmPu9SceR_q">
    <mxGraphModel dx="826" dy="643" grid="1" gridSize="10" guides="1" tooltips="1" connect="1" arrows="1" fold="1" page="1" pageScale="1" pageWidth="827" pageHeight="1169" math="0" shadow="0">
      <root>
        <mxCell id="0" />
        <mxCell id="1" parent="0" />
        <mxCell id="38f0H6PRtak_OV9HSnb_-82" value="" style="ellipse;whiteSpace=wrap;html=1;aspect=fixed;" vertex="1" parent="1">
          <mxGeometry x="60" y="90" width="80" height="80" as="geometry" />
        </mxCell>
        <mxCell id="38f0H6PRtak_OV9HSnb_-83" value="시작" style="ellipse;whiteSpace=wrap;html=1;aspect=fixed;fontFamily=Lucida Console;" vertex="1" parent="1">
          <mxGeometry x="65" y="95" width="70" height="70" as="geometry" />
        </mxCell>
        <mxCell id="38f0H6PRtak_OV9HSnb_-84" value="" style="endArrow=classic;html=1;rounded=0;exitX=1;exitY=0.5;exitDx=0;exitDy=0;" edge="1" parent="1" source="38f0H6PRtak_OV9HSnb_-82" target="38f0H6PRtak_OV9HSnb_-86">
          <mxGeometry width="50" height="50" relative="1" as="geometry">
            <mxPoint x="410" y="380" as="sourcePoint" />
            <mxPoint x="190" y="130" as="targetPoint" />
          </mxGeometry>
        </mxCell>
        <mxCell id="38f0H6PRtak_OV9HSnb_-85" value="" style="edgeStyle=orthogonalEdgeStyle;rounded=0;orthogonalLoop=1;jettySize=auto;html=1;" edge="1" parent="1" source="38f0H6PRtak_OV9HSnb_-86" target="38f0H6PRtak_OV9HSnb_-88">
          <mxGeometry relative="1" as="geometry" />
        </mxCell>
        <mxCell id="38f0H6PRtak_OV9HSnb_-86" value="몇 명이 참가할지&amp;nbsp;&lt;div&gt;선택한다&lt;/div&gt;" style="ellipse;whiteSpace=wrap;html=1;" vertex="1" parent="1">
          <mxGeometry x="210" y="90" width="120" height="80" as="geometry" />
        </mxCell>
        <mxCell id="38f0H6PRtak_OV9HSnb_-87" value="" style="endArrow=classic;html=1;rounded=0;exitX=0.5;exitY=1;exitDx=0;exitDy=0;" edge="1" parent="1" source="38f0H6PRtak_OV9HSnb_-86">
          <mxGeometry width="50" height="50" relative="1" as="geometry">
            <mxPoint x="410" y="380" as="sourcePoint" />
            <mxPoint x="270" y="200" as="targetPoint" />
          </mxGeometry>
        </mxCell>
        <mxCell id="38f0H6PRtak_OV9HSnb_-88" value="참가자의&lt;div&gt;순서를 정한다&lt;/div&gt;" style="ellipse;whiteSpace=wrap;html=1;" vertex="1" parent="1">
          <mxGeometry x="210" y="200" width="120" height="80" as="geometry" />
        </mxCell>
        <mxCell id="38f0H6PRtak_OV9HSnb_-89" value="" style="endArrow=classic;html=1;rounded=0;" edge="1" parent="1">
          <mxGeometry width="50" height="50" relative="1" as="geometry">
            <mxPoint x="270" y="280" as="sourcePoint" />
            <mxPoint x="270" y="310" as="targetPoint" />
          </mxGeometry>
        </mxCell>
        <mxCell id="38f0H6PRtak_OV9HSnb_-90" value="입력한 단어가&amp;nbsp;&lt;span style=&quot;background-color: initial;&quot;&gt;제시어가 된다&lt;/span&gt;&lt;div&gt;&lt;span style=&quot;background-color: initial;&quot;&gt;&lt;br&gt;&lt;/span&gt;&lt;/div&gt;&lt;div&gt;&lt;span style=&quot;background-color: initial;&quot;&gt;&lt;br&gt;&lt;/span&gt;&lt;/div&gt;&lt;div&gt;&lt;span style=&quot;background-color: initial;&quot;&gt;&lt;br&gt;&lt;/span&gt;&lt;/div&gt;&lt;div&gt;&lt;span style=&quot;background-color: initial;&quot;&gt;&lt;br&gt;&lt;/span&gt;&lt;/div&gt;&lt;div&gt;&lt;span style=&quot;background-color: initial;&quot;&gt;&lt;br&gt;&lt;/span&gt;&lt;/div&gt;&lt;div&gt;&lt;span style=&quot;background-color: initial;&quot;&gt;&lt;br&gt;&lt;/span&gt;&lt;/div&gt;&lt;div&gt;&lt;span style=&quot;background-color: initial;&quot;&gt;&lt;br&gt;&lt;/span&gt;&lt;/div&gt;&lt;div&gt;&lt;span style=&quot;background-color: initial;&quot;&gt;&lt;br&gt;&lt;/span&gt;&lt;/div&gt;&lt;div&gt;&lt;span style=&quot;background-color: initial;&quot;&gt;&lt;br&gt;&lt;/span&gt;&lt;/div&gt;" style="ellipse;whiteSpace=wrap;html=1;" vertex="1" parent="1">
          <mxGeometry x="628" y="280" width="265" height="220" as="geometry" />
        </mxCell>
        <mxCell id="38f0H6PRtak_OV9HSnb_-91" value="" style="endArrow=classic;html=1;rounded=0;exitX=0;exitY=0.5;exitDx=0;exitDy=0;entryX=0.913;entryY=0.227;entryDx=0;entryDy=0;entryPerimeter=0;" edge="1" parent="1" source="38f0H6PRtak_OV9HSnb_-114" target="38f0H6PRtak_OV9HSnb_-90">
          <mxGeometry width="50" height="50" relative="1" as="geometry">
            <mxPoint x="997" y="320" as="sourcePoint" />
            <mxPoint x="877" y="330" as="targetPoint" />
          </mxGeometry>
        </mxCell>
        <mxCell id="38f0H6PRtak_OV9HSnb_-92" value="예" style="edgeLabel;html=1;align=center;verticalAlign=middle;resizable=0;points=[];" vertex="1" connectable="0" parent="38f0H6PRtak_OV9HSnb_-91">
          <mxGeometry x="0.04" relative="1" as="geometry">
            <mxPoint as="offset" />
          </mxGeometry>
        </mxCell>
        <mxCell id="38f0H6PRtak_OV9HSnb_-93" value="" style="endArrow=classic;html=1;rounded=0;exitX=0.5;exitY=1;exitDx=0;exitDy=0;" edge="1" parent="1" source="38f0H6PRtak_OV9HSnb_-114">
          <mxGeometry width="50" height="50" relative="1" as="geometry">
            <mxPoint x="1052" y="349" as="sourcePoint" />
            <mxPoint x="1057" y="420" as="targetPoint" />
          </mxGeometry>
        </mxCell>
        <mxCell id="38f0H6PRtak_OV9HSnb_-94" value="아니요" style="edgeLabel;html=1;align=center;verticalAlign=middle;resizable=0;points=[];" vertex="1" connectable="0" parent="38f0H6PRtak_OV9HSnb_-93">
          <mxGeometry x="-0.24" y="-1" relative="1" as="geometry">
            <mxPoint as="offset" />
          </mxGeometry>
        </mxCell>
        <mxCell id="38f0H6PRtak_OV9HSnb_-95" value="틀렸다고&lt;div&gt;표시한다&lt;/div&gt;" style="ellipse;whiteSpace=wrap;html=1;" vertex="1" parent="1">
          <mxGeometry x="997" y="420" width="120" height="80" as="geometry" />
        </mxCell>
        <mxCell id="38f0H6PRtak_OV9HSnb_-96" value="" style="endArrow=classic;html=1;rounded=0;exitX=0.5;exitY=1;exitDx=0;exitDy=0;" edge="1" parent="1" source="38f0H6PRtak_OV9HSnb_-95">
          <mxGeometry width="50" height="50" relative="1" as="geometry">
            <mxPoint x="1107" y="460" as="sourcePoint" />
            <mxPoint x="1057" y="550" as="targetPoint" />
          </mxGeometry>
        </mxCell>
        <mxCell id="38f0H6PRtak_OV9HSnb_-97" value="" style="ellipse;whiteSpace=wrap;html=1;aspect=fixed;" vertex="1" parent="1">
          <mxGeometry x="1017" y="550.5" width="80" height="80" as="geometry" />
        </mxCell>
        <mxCell id="38f0H6PRtak_OV9HSnb_-98" value="끝" style="ellipse;whiteSpace=wrap;html=1;aspect=fixed;fontFamily=Lucida Console;" vertex="1" parent="1">
          <mxGeometry x="1022" y="555.5" width="70" height="70" as="geometry" />
        </mxCell>
        <mxCell id="38f0H6PRtak_OV9HSnb_-99" value="" style="whiteSpace=wrap;html=1;aspect=fixed;" vertex="1" parent="1">
          <mxGeometry x="230" y="310" width="80" height="80" as="geometry" />
        </mxCell>
        <mxCell id="38f0H6PRtak_OV9HSnb_-100" value="대기" style="whiteSpace=wrap;html=1;aspect=fixed;" vertex="1" parent="1">
          <mxGeometry x="235" y="315" width="70" height="70" as="geometry" />
        </mxCell>
        <mxCell id="38f0H6PRtak_OV9HSnb_-101" value="" style="whiteSpace=wrap;html=1;aspect=fixed;" vertex="1" parent="1">
          <mxGeometry x="370" y="90" width="160" height="71" as="geometry" />
        </mxCell>
        <mxCell id="38f0H6PRtak_OV9HSnb_-102" value="단어 입력&lt;div&gt;(Input 이벤트)&lt;/div&gt;" style="whiteSpace=wrap;html=1;aspect=fixed;" vertex="1" parent="1">
          <mxGeometry x="375" y="95" width="150" height="61" as="geometry" />
        </mxCell>
        <mxCell id="38f0H6PRtak_OV9HSnb_-103" value="" style="endArrow=classic;html=1;rounded=0;exitX=0.5;exitY=1;exitDx=0;exitDy=0;" edge="1" parent="1">
          <mxGeometry width="50" height="50" relative="1" as="geometry">
            <mxPoint x="450" y="161" as="sourcePoint" />
            <mxPoint x="450" y="191" as="targetPoint" />
          </mxGeometry>
        </mxCell>
        <mxCell id="38f0H6PRtak_OV9HSnb_-104" value="입력한 단어를&amp;nbsp;&lt;div&gt;저장한다&lt;/div&gt;" style="ellipse;whiteSpace=wrap;html=1;" vertex="1" parent="1">
          <mxGeometry x="390" y="191" width="120" height="80" as="geometry" />
        </mxCell>
        <mxCell id="38f0H6PRtak_OV9HSnb_-105" value="" style="whiteSpace=wrap;html=1;aspect=fixed;" vertex="1" parent="1">
          <mxGeometry x="857" y="90" width="160" height="71" as="geometry" />
        </mxCell>
        <mxCell id="38f0H6PRtak_OV9HSnb_-106" value="입력 버튼 클릭&lt;br&gt;&lt;div&gt;(click 이벤트)&lt;/div&gt;" style="whiteSpace=wrap;html=1;aspect=fixed;" vertex="1" parent="1">
          <mxGeometry x="862" y="95" width="150" height="61" as="geometry" />
        </mxCell>
        <mxCell id="38f0H6PRtak_OV9HSnb_-107" value="" style="endArrow=classic;html=1;rounded=0;exitX=0.5;exitY=1;exitDx=0;exitDy=0;" edge="1" parent="1">
          <mxGeometry width="50" height="50" relative="1" as="geometry">
            <mxPoint x="937" y="161" as="sourcePoint" />
            <mxPoint x="937" y="191" as="targetPoint" />
          </mxGeometry>
        </mxCell>
        <mxCell id="38f0H6PRtak_OV9HSnb_-108" value="제시어가&lt;div&gt;비어있는가?&lt;/div&gt;" style="rhombus;whiteSpace=wrap;html=1;" vertex="1" parent="1">
          <mxGeometry x="877" y="191" width="120" height="80" as="geometry" />
        </mxCell>
        <mxCell id="38f0H6PRtak_OV9HSnb_-109" value="" style="endArrow=classic;html=1;rounded=0;exitX=0;exitY=0.5;exitDx=0;exitDy=0;" edge="1" parent="1" source="38f0H6PRtak_OV9HSnb_-108">
          <mxGeometry width="50" height="50" relative="1" as="geometry">
            <mxPoint x="1047" y="370" as="sourcePoint" />
            <mxPoint x="750" y="280" as="targetPoint" />
            <Array as="points">
              <mxPoint x="750" y="231" />
            </Array>
          </mxGeometry>
        </mxCell>
        <mxCell id="38f0H6PRtak_OV9HSnb_-110" value="예" style="edgeLabel;html=1;align=center;verticalAlign=middle;resizable=0;points=[];" vertex="1" connectable="0" parent="38f0H6PRtak_OV9HSnb_-109">
          <mxGeometry x="0.3945" y="-1" relative="1" as="geometry">
            <mxPoint as="offset" />
          </mxGeometry>
        </mxCell>
        <mxCell id="38f0H6PRtak_OV9HSnb_-111" value="" style="endArrow=classic;html=1;rounded=0;exitX=1;exitY=0.5;exitDx=0;exitDy=0;" edge="1" parent="1" source="38f0H6PRtak_OV9HSnb_-108">
          <mxGeometry width="50" height="50" relative="1" as="geometry">
            <mxPoint x="1072" y="241" as="sourcePoint" />
            <mxPoint x="1057" y="290" as="targetPoint" />
            <Array as="points">
              <mxPoint x="1057" y="231" />
            </Array>
          </mxGeometry>
        </mxCell>
        <mxCell id="38f0H6PRtak_OV9HSnb_-112" value="예" style="edgeLabel;html=1;align=center;verticalAlign=middle;resizable=0;points=[];" vertex="1" connectable="0" parent="38f0H6PRtak_OV9HSnb_-111">
          <mxGeometry x="0.3945" y="-1" relative="1" as="geometry">
            <mxPoint as="offset" />
          </mxGeometry>
        </mxCell>
        <mxCell id="38f0H6PRtak_OV9HSnb_-113" value="아니요" style="edgeLabel;html=1;align=center;verticalAlign=middle;resizable=0;points=[];" vertex="1" connectable="0" parent="38f0H6PRtak_OV9HSnb_-111">
          <mxGeometry x="0.4118" y="-3" relative="1" as="geometry">
            <mxPoint as="offset" />
          </mxGeometry>
        </mxCell>
        <mxCell id="38f0H6PRtak_OV9HSnb_-114" value="제시어에&lt;div&gt;맞는 단어인가?&lt;/div&gt;" style="rhombus;whiteSpace=wrap;html=1;" vertex="1" parent="1">
          <mxGeometry x="997" y="290" width="120" height="80" as="geometry" />
        </mxCell>
        <mxCell id="38f0H6PRtak_OV9HSnb_-115" value="" style="endArrow=classic;html=1;rounded=0;exitX=0.5;exitY=1;exitDx=0;exitDy=0;" edge="1" parent="1" source="38f0H6PRtak_OV9HSnb_-121">
          <mxGeometry width="50" height="50" relative="1" as="geometry">
            <mxPoint x="760.5" y="500" as="sourcePoint" />
            <mxPoint x="760.5" y="550" as="targetPoint" />
          </mxGeometry>
        </mxCell>
        <mxCell id="38f0H6PRtak_OV9HSnb_-116" value="다음 참가자에게&lt;div&gt;차례를 넘긴다&lt;/div&gt;" style="ellipse;whiteSpace=wrap;html=1;" vertex="1" parent="1">
          <mxGeometry x="700.5" y="549" width="120" height="80" as="geometry" />
        </mxCell>
        <mxCell id="38f0H6PRtak_OV9HSnb_-117" value="" style="endArrow=classic;html=1;rounded=0;exitX=0.5;exitY=1;exitDx=0;exitDy=0;" edge="1" parent="1">
          <mxGeometry width="50" height="50" relative="1" as="geometry">
            <mxPoint x="760" y="629" as="sourcePoint" />
            <mxPoint x="760" y="679" as="targetPoint" />
          </mxGeometry>
        </mxCell>
        <mxCell id="38f0H6PRtak_OV9HSnb_-118" value="" style="whiteSpace=wrap;html=1;aspect=fixed;" vertex="1" parent="1">
          <mxGeometry x="720.5" y="679.5" width="80" height="80" as="geometry" />
        </mxCell>
        <mxCell id="38f0H6PRtak_OV9HSnb_-119" value="대기" style="whiteSpace=wrap;html=1;aspect=fixed;" vertex="1" parent="1">
          <mxGeometry x="725.5" y="684.5" width="70" height="70" as="geometry" />
        </mxCell>
        <mxCell id="38f0H6PRtak_OV9HSnb_-120" value="입력한 단어를&amp;nbsp;&lt;div&gt;제시어에 저장한다&lt;/div&gt;" style="ellipse;whiteSpace=wrap;html=1;" vertex="1" parent="1">
          <mxGeometry x="700" y="340" width="120" height="60" as="geometry" />
        </mxCell>
        <mxCell id="38f0H6PRtak_OV9HSnb_-121" value="제시어를&lt;div&gt;화면에 표시한다&lt;/div&gt;" style="ellipse;whiteSpace=wrap;html=1;" vertex="1" parent="1">
          <mxGeometry x="700" y="410" width="120" height="60" as="geometry" />
        </mxCell>
        <mxCell id="38f0H6PRtak_OV9HSnb_-122" value="" style="endArrow=classic;html=1;rounded=0;exitX=0.5;exitY=1;exitDx=0;exitDy=0;" edge="1" parent="1">
          <mxGeometry width="50" height="50" relative="1" as="geometry">
            <mxPoint x="759.5" y="400" as="sourcePoint" />
            <mxPoint x="760" y="410" as="targetPoint" />
          </mxGeometry>
        </mxCell>
      </root>
    </mxGraphModel>
  </diagram>
</mxfile>
